<svg width="90" height="90" viewBox="0 0 90 90" fill="none" xmlns="http://www.w3.org/2000/svg">
<g filter="url(#filter0_i_204_51)">
<rect y="45" width="63.6396" height="63.6396" transform="rotate(-45 0 45)" fill="#3E6E7F"/>
</g>
<g filter="url(#filter1_f_204_51)">
<rect x="11.1915" y="44.6295" width="47.2886" height="47.2886" transform="rotate(-45 11.1915 44.6295)" fill="#01051B"/>
</g>
<path d="M15.0275 56.1408V31.6608H22.6235C25.4315 31.6608 27.5915 32.5128 29.1035 34.2168C30.6155 35.8968 31.3715 38.2248 31.3715 41.2008V46.5648C31.3715 49.5648 30.6155 51.9168 29.1035 53.6208C27.5915 55.3008 25.4315 56.1408 22.6235 56.1408H15.0275ZM22.5515 34.6128H18.1595V53.2248H22.5515C26.2715 53.2248 28.1315 51.0048 28.1315 46.5648V41.2008C28.1315 36.8088 26.2715 34.6128 22.5515 34.6128ZM41.4414 46.5648V56.1408H38.3094V31.6608H45.9774C48.2814 31.6608 50.0574 32.2728 51.3054 33.4968C52.5774 34.6968 53.2134 36.3048 53.2134 38.3208V39.8688C53.2134 41.3088 52.8774 42.5568 52.2054 43.6128C51.5574 44.6688 50.6214 45.4488 49.3974 45.9528C50.4294 47.6088 51.3894 49.2888 52.2774 50.9928C53.1654 52.6968 53.9814 54.4128 54.7254 56.1408H51.1254C49.7574 52.8768 48.1614 49.6848 46.3374 46.5648H41.4414ZM45.9774 34.5408H41.4414V43.6848H45.9774C47.2014 43.6848 48.1734 43.3488 48.8934 42.6768C49.6134 41.9808 49.9734 41.0448 49.9734 39.8688V38.3208C49.9734 37.1208 49.6134 36.1968 48.8934 35.5488C48.1734 34.8768 47.2014 34.5408 45.9774 34.5408ZM76.9584 41.2008V46.5648C76.9584 49.6128 76.1904 52.0368 74.6544 53.8368C73.1424 55.6128 70.9584 56.5008 68.1024 56.5008C65.2464 56.5008 63.0504 55.6128 61.5144 53.8368C60.0024 52.0368 59.2464 49.6128 59.2464 46.5648V41.2008C59.2464 38.1768 60.0024 35.7768 61.5144 34.0008C63.0504 32.2008 65.2464 31.3008 68.1024 31.3008C70.9584 31.3008 73.1424 32.2008 74.6544 34.0008C76.1904 35.7768 76.9584 38.1768 76.9584 41.2008ZM73.7184 41.2008C73.7184 38.9688 73.2384 37.2528 72.2784 36.0528C71.3424 34.8288 69.9504 34.2168 68.1024 34.2168C66.2784 34.2168 64.8864 34.8288 63.9264 36.0528C62.9664 37.2528 62.4864 38.9688 62.4864 41.2008V46.5648C62.4864 48.8208 62.9664 50.5608 63.9264 51.7848C64.8864 53.0088 66.2784 53.6208 68.1024 53.6208C69.9504 53.6208 71.3424 53.0088 72.2784 51.7848C73.2384 50.5608 73.7184 48.8208 73.7184 46.5648V41.2008Z" fill="#50AFAA"/>
<path d="M15.0275 56.1408H14.0275V57.1408H15.0275V56.1408ZM15.0275 31.6608V30.6608H14.0275V31.6608H15.0275ZM29.1035 34.2168L28.3555 34.8805L28.3602 34.8857L29.1035 34.2168ZM29.1035 53.6208L29.8468 54.2898L29.8515 54.2845L29.1035 53.6208ZM18.1595 34.6128V33.6128H17.1595V34.6128H18.1595ZM18.1595 53.2248H17.1595V54.2248H18.1595V53.2248ZM16.0275 56.1408V31.6608H14.0275V56.1408H16.0275ZM15.0275 32.6608H22.6235V30.6608H15.0275V32.6608ZM22.6235 32.6608C25.2175 32.6608 27.0763 33.4389 28.3555 34.8805L29.8515 33.5531C28.1066 31.5867 25.6455 30.6608 22.6235 30.6608V32.6608ZM28.3602 34.8857C29.6603 36.3303 30.3715 38.3919 30.3715 41.2008H32.3715C32.3715 38.0577 31.5707 35.4632 29.8468 33.5478L28.3602 34.8857ZM30.3715 41.2008V46.5648H32.3715V41.2008H30.3715ZM30.3715 46.5648C30.3715 49.3992 29.6594 51.4876 28.3555 52.9571L29.8515 54.2845C31.5716 52.346 32.3715 49.7304 32.3715 46.5648H30.3715ZM28.3602 52.9518C27.0822 54.3718 25.222 55.1408 22.6235 55.1408V57.1408C25.641 57.1408 28.1007 56.2298 29.8468 54.2897L28.3602 52.9518ZM22.6235 55.1408H15.0275V57.1408H22.6235V55.1408ZM22.5515 33.6128H18.1595V35.6128H22.5515V33.6128ZM17.1595 34.6128V53.2248H19.1595V34.6128H17.1595ZM18.1595 54.2248H22.5515V52.2248H18.1595V54.2248ZM22.5515 54.2248C24.6166 54.2248 26.3316 53.6001 27.503 52.202C28.646 50.8377 29.1315 48.9 29.1315 46.5648H27.1315C27.1315 48.6695 26.6869 50.0618 25.97 50.9176C25.2814 51.7394 24.2063 52.2248 22.5515 52.2248V54.2248ZM29.1315 46.5648V41.2008H27.1315V46.5648H29.1315ZM29.1315 41.2008C29.1315 38.8874 28.6451 36.966 27.4995 35.6135C26.327 34.2291 24.6131 33.6128 22.5515 33.6128V35.6128C24.2098 35.6128 25.2859 36.0944 25.9734 36.9061C26.6878 37.7496 27.1315 39.1221 27.1315 41.2008H29.1315ZM41.4414 46.5648V45.5648H40.4414V46.5648H41.4414ZM41.4414 56.1408V57.1408H42.4414V56.1408H41.4414ZM38.3094 56.1408H37.3094V57.1408H38.3094V56.1408ZM38.3094 31.6608V30.6608H37.3094V31.6608H38.3094ZM51.3054 33.4968L50.6051 34.2107L50.6121 34.2175L50.6191 34.2242L51.3054 33.4968ZM52.2054 43.6128L51.3617 43.0759L51.3573 43.0828L51.353 43.0898L52.2054 43.6128ZM49.3974 45.9528L49.0166 45.0281L47.9234 45.4783L48.5487 46.4817L49.3974 45.9528ZM52.2774 50.9928L51.3905 51.4549L52.2774 50.9928ZM54.7254 56.1408V57.1408H56.2447L55.6438 55.7453L54.7254 56.1408ZM51.1254 56.1408L50.2031 56.5273L50.4602 57.1408H51.1254V56.1408ZM46.3374 46.5648L47.2006 46.0601L46.9111 45.5648H46.3374V46.5648ZM41.4414 34.5408V33.5408H40.4414V34.5408H41.4414ZM41.4414 43.6848H40.4414V44.6848H41.4414V43.6848ZM48.8934 42.6768L49.5757 43.4078L49.5821 43.4019L49.5884 43.3958L48.8934 42.6768ZM48.8934 35.5488L48.211 36.2798L48.2177 36.286L48.2244 36.2921L48.8934 35.5488ZM40.4414 46.5648V56.1408H42.4414V46.5648H40.4414ZM41.4414 55.1408H38.3094V57.1408H41.4414V55.1408ZM39.3094 56.1408V31.6608H37.3094V56.1408H39.3094ZM38.3094 32.6608H45.9774V30.6608H38.3094V32.6608ZM45.9774 32.6608C48.1056 32.6608 49.5977 33.2226 50.6051 34.2107L52.0056 32.7828C50.517 31.3229 48.4571 30.6608 45.9774 30.6608V32.6608ZM50.6191 34.2242C51.6597 35.2058 52.2134 36.5341 52.2134 38.3208H54.2134C54.2134 36.0755 53.495 34.1877 51.9916 32.7694L50.6191 34.2242ZM52.2134 38.3208V39.8688H54.2134V38.3208H52.2134ZM52.2134 39.8688C52.2134 41.1479 51.9169 42.2034 51.3617 43.0759L53.049 44.1497C53.8378 42.9102 54.2134 41.4697 54.2134 39.8688H52.2134ZM51.353 43.0898C50.8235 43.9527 50.0591 44.5989 49.0166 45.0281L49.7781 46.8775C51.1836 46.2987 52.2912 45.3849 53.0577 44.1358L51.353 43.0898ZM48.5487 46.4817C49.5673 48.1163 50.5146 49.774 51.3905 51.4549L53.1642 50.5306C52.2641 48.8036 51.2914 47.1013 50.246 45.4239L48.5487 46.4817ZM51.3905 51.4549C52.2674 53.1376 53.0728 54.8313 53.8069 56.5362L55.6438 55.7453C54.8899 53.9942 54.0633 52.256 53.1642 50.5306L51.3905 51.4549ZM54.7254 55.1408H51.1254V57.1408H54.7254V55.1408ZM52.0476 55.7542C50.6622 52.4487 49.0464 49.2173 47.2006 46.0601L45.4741 47.0695C47.2763 50.1522 48.8525 53.3048 50.2031 56.5273L52.0476 55.7542ZM46.3374 45.5648H41.4414V47.5648H46.3374V45.5648ZM45.9774 33.5408H41.4414V35.5408H45.9774V33.5408ZM40.4414 34.5408V43.6848H42.4414V34.5408H40.4414ZM41.4414 44.6848H45.9774V42.6848H41.4414V44.6848ZM45.9774 44.6848C47.3902 44.6848 48.6283 44.2921 49.5757 43.4078L48.211 41.9457C47.7185 42.4055 47.0125 42.6848 45.9774 42.6848V44.6848ZM49.5884 43.3958C50.5373 42.4785 50.9734 41.2647 50.9734 39.8688H48.9734C48.9734 40.8249 48.6894 41.4831 48.1983 41.9578L49.5884 43.3958ZM50.9734 39.8688V38.3208H48.9734V39.8688H50.9734ZM50.9734 38.3208C50.9734 36.9102 50.5418 35.687 49.5623 34.8055L48.2244 36.2921C48.6849 36.7066 48.9734 37.3313 48.9734 38.3208H50.9734ZM49.5757 34.8177C48.6283 33.9335 47.3902 33.5408 45.9774 33.5408V35.5408C47.0125 35.5408 47.7185 35.8201 48.211 36.2798L49.5757 34.8177ZM74.6544 53.8368L73.8938 53.1877L73.893 53.1885L74.6544 53.8368ZM61.5144 53.8368L60.7487 54.48L60.7534 54.4855L60.7581 54.4909L61.5144 53.8368ZM61.5144 34.0008L60.7538 33.3517L60.753 33.3525L61.5144 34.0008ZM74.6544 34.0008L73.8887 34.644L73.8934 34.6495L73.8981 34.6549L74.6544 34.0008ZM72.2784 36.0528L71.4841 36.6602L71.4907 36.6689L71.4976 36.6775L72.2784 36.0528ZM63.9264 36.0528L64.7074 36.6775L64.7133 36.6699L63.9264 36.0528ZM63.9264 51.7848L64.7133 51.1676L63.9264 51.7848ZM72.2784 51.7848L71.4915 51.1676L71.4841 51.1773L72.2784 51.7848ZM75.9584 41.2008V46.5648H77.9584V41.2008H75.9584ZM75.9584 46.5648C75.9584 49.4449 75.2352 51.6156 73.8938 53.1877L75.4151 54.4859C77.1457 52.4579 77.9584 49.7807 77.9584 46.5648H75.9584ZM73.893 53.1885C72.6131 54.6919 70.7372 55.5008 68.1024 55.5008V57.5008C71.1797 57.5008 73.6718 56.5336 75.4159 54.485L73.893 53.1885ZM68.1024 55.5008C65.4683 55.5008 63.5762 54.692 62.2708 53.1826L60.7581 54.4909C62.5247 56.5336 65.0246 57.5008 68.1024 57.5008V55.5008ZM62.2802 53.1936C60.9596 51.6215 60.2464 49.4485 60.2464 46.5648H58.2464C58.2464 49.7771 59.0453 52.452 60.7487 54.48L62.2802 53.1936ZM60.2464 46.5648V41.2008H58.2464V46.5648H60.2464ZM60.2464 41.2008C60.2464 38.3426 60.9588 36.1961 62.2759 34.649L60.753 33.3525C59.0461 35.3574 58.2464 38.011 58.2464 41.2008H60.2464ZM62.2751 34.6499C63.5819 33.1186 65.4727 32.3008 68.1024 32.3008V30.3008C65.0202 30.3008 62.519 31.283 60.7538 33.3517L62.2751 34.6499ZM68.1024 32.3008C70.7327 32.3008 72.6074 33.1186 73.8887 34.644L75.4202 33.3576C73.6775 31.283 71.1842 30.3008 68.1024 30.3008V32.3008ZM73.8981 34.6549C75.2361 36.202 75.9584 38.3462 75.9584 41.2008H77.9584C77.9584 38.0073 77.1448 35.3515 75.4108 33.3466L73.8981 34.6549ZM74.7184 41.2008C74.7184 38.8414 74.2129 36.8701 73.0593 35.4281L71.4976 36.6775C72.264 37.6355 72.7184 39.0962 72.7184 41.2008H74.7184ZM73.0728 35.4453C71.909 33.9234 70.1924 33.2168 68.1024 33.2168V35.2168C69.7085 35.2168 70.7759 35.7341 71.4841 36.6602L73.0728 35.4453ZM68.1024 33.2168C66.0308 33.2168 64.3231 33.9267 63.1396 35.4356L64.7133 36.6699C65.4498 35.7309 66.5261 35.2168 68.1024 35.2168V33.2168ZM63.1456 35.4281C61.992 36.8701 61.4864 38.8414 61.4864 41.2008H63.4864C63.4864 39.0962 63.9409 37.6355 64.7073 36.6775L63.1456 35.4281ZM61.4864 41.2008V46.5648H63.4864V41.2008H61.4864ZM61.4864 46.5648C61.4864 48.947 61.9914 50.938 63.1396 52.4019L64.7133 51.1676C63.9415 50.1836 63.4864 48.6946 63.4864 46.5648H61.4864ZM63.1396 52.4019C64.3231 53.9109 66.0308 54.6208 68.1024 54.6208V52.6208C66.5261 52.6208 65.4498 52.1067 64.7133 51.1676L63.1396 52.4019ZM68.1024 54.6208C70.1924 54.6208 71.909 53.9141 73.0728 52.3922L71.4841 51.1773C70.7759 52.1034 69.7085 52.6208 68.1024 52.6208V54.6208ZM73.0653 52.4019C74.2135 50.938 74.7184 48.947 74.7184 46.5648H72.7184C72.7184 48.6946 72.2634 50.1836 71.4916 51.1676L73.0653 52.4019ZM74.7184 46.5648V41.2008H72.7184V46.5648H74.7184Z" fill="#73BFBB"/>
<defs>
<filter id="filter0_i_204_51" x="0" y="0" width="90" height="94" filterUnits="userSpaceOnUse" color-interpolation-filters="sRGB">
<feFlood flood-opacity="0" result="BackgroundImageFix"/>
<feBlend mode="normal" in="SourceGraphic" in2="BackgroundImageFix" result="shape"/>
<feColorMatrix in="SourceAlpha" type="matrix" values="0 0 0 0 0 0 0 0 0 0 0 0 0 0 0 0 0 0 127 0" result="hardAlpha"/>
<feOffset dy="4"/>
<feGaussianBlur stdDeviation="2"/>
<feComposite in2="hardAlpha" operator="arithmetic" k2="-1" k3="1"/>
<feColorMatrix type="matrix" values="0 0 0 0 0 0 0 0 0 0 0 0 0 0 0 0 0 0 0.25 0"/>
<feBlend mode="normal" in2="shape" result="effect1_innerShadow_204_51"/>
</filter>
<filter id="filter1_f_204_51" x="7.19153" y="7.19147" width="74.8761" height="74.8762" filterUnits="userSpaceOnUse" color-interpolation-filters="sRGB">
<feFlood flood-opacity="0" result="BackgroundImageFix"/>
<feBlend mode="normal" in="SourceGraphic" in2="BackgroundImageFix" result="shape"/>
<feGaussianBlur stdDeviation="2" result="effect1_foregroundBlur_204_51"/>
</filter>
</defs>
</svg>
